<svg id="Ebene_1" data-name="Ebene 1" xmlns="http://www.w3.org/2000/svg" viewBox="0 0 338.04 31.25"><defs><style>.cls-1{isolation:isolate;}.cls-2{fill:#fff;}</style></defs><g class="cls-1"><path class="cls-2" d="M0,41.63l3.12-6.25h37.5l12.5-25H68.75L53.12,41.63Z" transform="translate(0 -10.38)"/><path class="cls-2" d="M60.11,41.63,57,35.38l12.5-25h25l15.63,31.25H94.48l-4.69-9.37H74.17l-4.69,9.37ZM86.67,26,82,16.63,77.29,26Z" transform="translate(0 -10.38)"/><path class="cls-2" d="M98.34,41.63,114,10.38h53.13L151.46,41.63H135.84l10.94-21.87H124.9L114,41.63Z" transform="translate(0 -10.38)"/><path class="cls-2" d="M155.32,41.63,171,10.38h15.62L178.76,26h21.87l7.82-15.63h15.62L214.7,29.13h-6.25l6.25,12.5H199.07l-4.69-9.37H175.63L171,41.63Z" transform="translate(0 -10.38)"/><path class="cls-2" d="M212.3,41.63l15.63-31.25h53.12l-4.68,9.38h-37.5L235.74,26h37.5l-3.12,6.25h-37.5l-1.57,3.12h37.5l-3.12,6.25Z" transform="translate(0 -10.38)"/><path class="cls-2" d="M269.29,41.63l15.62-31.25H338L322.41,41.63H306.79l10.93-21.87H295.85L284.91,41.63Z" transform="translate(0 -10.38)"/></g></svg>