<svg id="Ebene_1" data-name="Ebene 1" xmlns="http://www.w3.org/2000/svg" viewBox="0 0 446.91 468.32"><defs><style>.cls-1{fill:#fff;}</style></defs><path class="cls-1" d="M1764.12,1113.55c6.66.61,13.18,1.24,19.72,1.81q22,1.94,43.94,3.82c25.32,2.21,40.35,20.48,37.63,45.69-.57,5.26-.76,10.58-1.64,15.78-3.4,19.95-19.55,33.37-39.91,32.36-16-.79-32-2.69-48-4.07-12.65-1.1-25.31-2.16-38.31-2l30.14,12.14c13.08,5.28,26.21,10.43,39.23,15.86,20.54,8.55,29.58,29.53,21.82,50.41-2,5.32-4.15,10.58-6.41,15.8-8.74,20.14-30.4,29-50.87,20.77-20.91-8.38-41.8-16.83-62.73-25.2-1.73-.69-3.35-2-6.08-1.52,4.49,3.63,8.62,6.9,12.67,10.25,15.83,13.15,19,35.65,7.09,52.37-4.88,6.84-9.94,13.64-16,19.53-14.53,14.14-35.76,15.44-51.4,3.27l-93.76-72.89c-11.61-9-23.26-18-34.78-27.13a12,12,0,0,0-8-2.81q-32.36.18-64.72,0c-21.07,0-34.85-14-34.85-35.13q0-90.9,0-181.8c0-20.38,13.9-34.43,34.24-34.54,16.87-.09,33.73,0,50.6,0a8,8,0,0,0,6.59-2.69c29.27-30.61,58.49-61.26,88.19-91.46,15.6-15.87,39.41-15.25,55.3.45,3.76,3.72,7.64,7.33,11.26,11.19a38.76,38.76,0,0,1-.23,53.3c-10.75,11.15-21.7,22.11-32.54,33.17-1.33,1.36-2.57,2.82-4.9,5.39,8.83-1.14,16.25-2.07,23.67-3.06q72.27-9.62,144.56-19.23c25.69-3.37,43.93,11.21,46.72,37,.43,3.89,1,7.77,1.51,11.66,2.9,22.2-11.34,41.09-33.34,44.11-14.75,2-29.53,3.93-44.29,5.9C1765.49,1112.12,1764.62,1111.92,1764.12,1113.55Zm-322.84,38.33q0,44.71,0,89.43c0,10.54,3.56,14.07,14.18,14.08,23,0,45.89.06,68.84,0,3.87,0,7.29.67,10.4,3.13,43.48,34.42,88.14,67.34,130.86,102.72,9.74,8.07,16,8.42,24.64.16,5.13-4.91,10.32-9.82,13.81-16.33,4.75-8.86,3.78-16.65-4-23-9.6-7.76-19.31-15.39-29-23.09-14.86-11.87-29.76-23.68-44.53-35.66-4.93-4-6-9.78-3.19-14.69,2.87-5.07,8-6.81,14.21-4.75,1.48.5,2.93,1.12,4.38,1.7q68.47,27.48,136.93,54.94c10.71,4.29,18.74.93,23.3-9.72,1.47-3.43,2.8-6.9,4.21-10.35,5.34-13.15,2-20.85-11-26q-69.58-27.83-139.13-55.73c-7.42-3-10.55-8.12-8.89-14.42,1.53-5.85,6.54-8.61,14.47-7.91q40.13,3.53,80.26,7.08,39.83,3.54,79.64,7.12c12,1.06,19-4.76,20.3-16.69.43-4.1.66-8.21,1.06-12.31,1.11-11.49-4.82-18.86-16.42-19.9q-55.94-5-111.89-9.82c-19-1.66-37.9-3.23-56.83-5-8.21-.75-12.45-4.72-12.54-11.27-.09-6.71,4.45-10.92,12.68-11.84,3.12-.34,6.22-.77,9.33-1.18q69.93-9.36,139.86-18.74c9.8-1.33,15.33-8.84,14.25-18.78-.48-4.48-1-9-1.68-13.42-1.72-12.06-8.76-17.5-20.84-16-8.16,1-16.31,2.17-24.47,3.27-55,7.35-109.93,14.78-164.93,21.94-4.23.55-6,2.07-7.13,6-7.89,26.68-16,53.27-24,79.93-1.69,5.66-5,8.93-10.89,10.13-13.24,2.72-26.42,5.78-39.63,8.61-7.74,1.66-13.65-1.73-15-8.42-1.28-6.34,2.64-11.76,9.94-13.43,9.93-2.29,19.84-4.7,29.85-6.51,4.13-.75,5.9-2.59,7-6.45,7.81-26.29,15.86-52.5,23.73-78.77a24.11,24.11,0,0,1,6.14-10.43q28.77-29,57.28-58.33c8.27-8.45,8.21-17.4-.1-25.75q-3.74-3.75-7.53-7.43c-9.45-9.22-18.21-9.09-27.44.47q-40,41.46-80,83c-1.9,2-3.94,3.83-4.86,6.55-2.18,6.49-6.84,8.92-13.54,8.86-19.22-.16-38.44,0-57.66,0-11.19,0-14.49,3.23-14.5,14.27Q1441.25,1107.47,1441.28,1151.88Z" transform="translate(-1418.82 -920.57)"/></svg>