<svg id="Ebene_1" data-name="Ebene 1" xmlns="http://www.w3.org/2000/svg" viewBox="0 0 788.33 1622.32"><defs><style>.cls-1{fill:#fff;}</style></defs><path class="cls-1" d="M1838.07,472.78c.39-4.22,7-7.06,4.66-10.73-3.1-4.91-8.55-2.21-13.27-.7-2.45.78-5.35.14-8.07.14-2-6.61,6.72-8.36,6-14-7.11-2.95-6.87,8.27-15.44,6,6.48-5,11.34-10.71,17.49-13.21,13.83-5.64,16.56-19.31,23.25-29.89,3.49-5.52-.78-12.26-5-16.86-6.48-7.12-29.62-10.15-38.47-5.78-5.58,2.76-11,6.07-16.82,8.07-7.29,2.49-14.16,3.74-22.83,2.49-18.17-2.6-37-.85-55.49-.76-3.12,0-5,1.46-4.64,5.15.42,5,.35,10.08.5,15.12l0,.23c-4.39,0-6.23,4.11-9.52,5.86l.3.19c-1-3.14,2.66-6.43-.7-10.22-6.13,5.7-7.71,14-12.65,20.1,1.62-10.61,6.63-20,11.64-29.14,4-7.33,10.25-11.77,19.87-11.72a397.88,397.88,0,0,0,44.16-2.6c5-.53,9.46-.89,13,2.62,3.4,3.35,5.82,2.31,9-.1,6.22-4.69,13.06-8.59,19-13.56,9.38-7.84,20.25-8,29.49-2.87,12,6.72,24.23,14,31.89,26.53,3.39,5.55,9,9.8,12.17,15.43,13,22.95,18.75,48.06,20.76,74.16.51,6.64,8.47,9.58,8.43,16.21-.1,18.33,18.19,17.84,27.31,26.66,2,1.9,6.27,3.39,9.46,3.87,16.68,2.54,19.92,14.16,18.88,27.94-1,13.46.35,27-2.19,40.41-2.51,13.24,1.24,26.44,3.45,39.19,2.73,15.75-1,30.06-4.12,44.72-1.9,9-1.48,13.94,9.47,16.68,16,4,21.36,15.89,20.72,32.58-.42,11.1-5,21.3-4.2,32.78.76,11-10.78,16.41-16.56,24.51-1.28,1.8-3.53.19-4.12-2.07-.52-2,.52-5.55-3.33-4.38-3.34,1-4.23,4.57-4.74,7.57-.61,3.54,2.17,3.43,4.6,3.11s5.61-.51,5.36,2.5c-.35,4.12-4,2.44-6.5,2-8.58-1.39-17.95,1.39-25.47-6.2,3.23.74,6.45,1.61,9.71,2.2,4,.73,6-1.16,7.91-4.93,2.74-5.3-1.14-3.54-3.32-4.9-3.42-2.14-1.69-5.54.23-8.17,3.63-5,3.74-9.46-1.81-13-2.91-1.85-.6-3.31.24-4.48,2.19-3.06,5-5.78,4.71-11.05-9,2.78-12.34,11.2-20,15.62,1.87-7.58,9.84-9.78,11.89-18-5.53,1.84-8.79,5.06-12.11,8.29-8.35,8.13-17,16-25.13,24.31-7.9,8.09-6.37,14.46,3.76,17.66-12.22,6.24-12.22,6.24-17.38-1.69-2.11,2.82-1.62,7.55-6.84,7.76-20.12.83-38.81,8-57.2,15-8.66,3.29-14-4.11-22-2.12-9.7,2.44-20.07,2.62-30.2,1.54-5-.54-11.48-.75-11.57-7.35-.12-9.71-5.3-9.79-12.68-9.5-7.54.3-16.64,3.9-21.14-6.83-.49-1.16-5.6-4.28-6.7,1.49-22.85-6.62-45.5-.65-68.21.68,22.71.55,45.44,2.42,68.09-.82-10.93,3.2-21.72,7.17-32.85,9.36-9.11,1.79-18.79.62-27.95,2.24-17,3-28.52-8-41.16-15.49-5.23-3.08.4-8.59,3.6-8.55,9.51.14,18.42-9.11,28.63-1.37,2.09,1.58,7.34-1.09,11.15-1.67,4.16-.63,7.42-.86,10-6,2.76-5.41,1.78,8.14,7.49,3,3-2.69,8.08-2.68,11-7-4.73-3.46-12.25-6.1-12.51-11.43-.29-5.94,3.79-12.17,6.28-18.13,3.2-7.67,8.66-14.49,8.12-23.7-6.62,8.62-14.42,16.32-16.38,27.82-.94,5.52-1.72,11.55-7.38,14.72-.83.47-3.87-.9-3.85-1.32a25.91,25.91,0,0,1,5.69-15c5.81-7.14,8.73-15.28,10.56-24.22C1675.24,735,1670.32,748,1662.26,759c-3.19-3.41,2.61-6.3.16-9.53-3.58-1.74-3.64,3.8-6.62,3.66,2.69-10.64,11.34-18.83,11.52-32.15-9.64,9.62-12.33,22.07-21.2,31.21,1.39-12.7,11.78-20.88,14.37-32.17l-3-1.68-22.92,38.71-1.23-.54q7.71-17.49,15.43-35c-10.86,11.9-18.53,25.63-25.89,39.63,4.86-15.13,14.12-28.55,15.61-44.95-5.1,11-12.63,20.32-18.82,30.51s-8,22.76-17.64,32.17c-.79-4.53-1.49-8.49-2.38-13.57-6.48,8.06-8.66,15.78-6.52,24.55,3,1.22,4.17-1.92,6.3-2.21,4.49-.6,9.69-3.49,13.3.68,4.66,5.39-5.64,8.12-3.55,14.46.67,2-5.94,3-10.08,1.94-8.32-2.18-16.74-.6-24.78,1.42-6.62,1.67-11,.09-15.23-5-9.32-11.13-14-25.11-23-36.52-3-3.75-2-9.63.16-15.23,3.22-8.51,6.74-17.9-4.38-25-7-4.49-4.35-14.3-8.49-20.83-1-1.58,1.25-3.63,3.17-4.21,2.27-.7,3.47.93,4.32,2.84,1.16,2.61-1,6.5,3.9,8.36,2.48-5.25,2.4-13.36,13-13.2-7.5,16.9,7.4,29.43,7.15,45,0,2,.88,4.45,3.21,3.94,3.81-.85,9-2.78,9.1-6.41.54-17,15.68-12.16,24.27-16.94,2.12-1.19,4.89-1.27,5.51,1.9.47,2.38-1.94,3-3.72,3.7-4.59,1.66-9.62,2.32-13.48,5.92,3,2.29,5.41-.27,8-.23,2.32,0,4,3.21,2.82,3.61-6.24,2.11-4.7,11.54-12.8,12.14-7.48.56-10.82,6-11.27,13.63-.33,5.7-.52,11.43-2.5,17.06-2.13,6.07,2.63,10.37,7.17,11.6,5.94,1.6,7.47-3.06,7.26-8.64s3-10.36,5.9-15c-1.24,4.29-3.18,8.56,0,14.11,9.24-12,11.24-26,15.6-39.09-4.48,8.07-8.35,16.42-16,22.05,5.71-12.75,10.94-25.76,17.35-38.15,2.66-5.16,2-16.28,13.79-11.34.52.22,2.31-2.59,5-5.72-2.73,17.34-16.27,28.23-17.14,47.55,7.17-12.67,13.15-22.36,17-33.24,3.13-8.81,6.86-16.81,16.62-20.58,3-1.15,5.49-.61,7.65-1,5.35-1,13.62,4.28,16.26-5.44.37-1.38,4.06-3.67,4.26-2.1,1.55,12.24,13-11.48,13,3.86,6.73-6.43,13.55-11.33,23.68-8,3.5,1.14,7.5.59,6.73-5.91a63.08,63.08,0,0,0-20.62-39.6c-6.28-5.73-17.65-2.39-26.6-1-12.88,2-17.68-2.66-15.22-15.63,1.78-9.4-3.25-17.24-6.2-25.57-1.22-3.43-5-7.81-.92-10.48,3.56-2.33,6.75,2,9.92,4.27,13.22,9.61,21.44,23.9,33.21,35,9.46,8.92,21.71,14.48,29.3,25.74,3.47,5.15,3.87-3,6.2-4.23,2.78,6.06-.87,12.35,4.17,18.73,1.79-7.13,3.29-13.11,5.5-22,4.62,14-.71,25.66,3,37.85,5.58-7.79,1.33-16.72,5.18-23.62,1.74-3.11-2.62-13.26,7.88-7.3.74.42,1.21-3.67,4.72-2.93-.23,27.36-9,53.93-9.36,82.65,7.56-4.59,2.67-11.83,6.19-16.75,4,4.52-3.45,12,4.18,14.18,3.09.89,3.14-4,5.46-5.37,2.59,3.63,7,6.06,8.2.54,2.3-10.15,2.45-20.79,3.5-31.23-5,10.36-4,22.13-11.84,31,2-26.7,10.81-51.8,18.1-77.36.92,9.22-5.63,17.56-3.34,28,7.46-7.08,7.23-16.24,8.72-24S1783,649,1788,649.6c7.44,1,3.64,6.38,2.65,9.76-6.2,21.13-9.33,42.75-12.43,66.28,5.28-2.13,7.77-11.42,13.33-3.4.46.66,8.57-2.19,7.23-5.48-4.14-10.11,5.19-12.3,8.81-17.73-3.17,3.67-6.52,7.22-5.47,13.61,7.73-2.71,12.45-7.68,17.19-12.67,8-8.39,15.88-16.86,24-25.07,5.75-5.78-3.5-7.28-3-11.68.26-2.46-2-1.64-3.2-.8-3.78,2.61-1.92,4.27-.08,7.69s-1.59,8.15-5.25,10.79c-5.66,4.08-11.52,7.86-17.3,11.77,1.22-8.78-6-7.12-10.65-8.58.77-2.54.74-6.09,2.45-7.46,8.71-7,8.59-11.65-2.72-14.42-3.07,8.36-6.14,16.71-9.28,25.23,4.74.89,6.39-3.75,10-3.76-5.13,7.26-10.27,14.51-16.45,23.23-1.16-17.37,7.88-31.68,7.23-47.26-.69-16.7,21.7-21.86,19.29-39.72C1810,630.16,1801.41,633,1791.88,634c-2.4.25-5.92,1.45-7.32-1.83-1.5-3.47,1.89-4.39,3.93-6.05,1.44-1.17,2.42-2.91,3.88-4.75-6.53.24-12.93-7.29-18.75,1l7.16-11.53c-7.08,2.62-13.82,7.54-15.25,13.88-2.58,11.45-11.14,6.88-17.13,8.32-3.84.92-4-2.57-2.12-5.4a18.47,18.47,0,0,1,10.2-7.35c-1.33,2.34-3.3,4.84-.83,7.32,1.47,1.47,4.59,1.19,5-.55,1.85-7.09,9-11,9.86-18.89L1756,620.76c1.9-9.16,11.24-13.55,14.16-22.06l1.24-2.13c5.45-6.57,11.54-10.43,19.53-4,1.25,1,2,2.36,3.75,1.44,5.49-3,14.56-2.88,15.57.32,1.77,5.6-2.56,12.35-6.22,17.85-1.29,1.93-3.21,3.44-4.43,5.41-2.63,4.24-.83,8.31,3,9.74s4.49-2.86,5.48-5.8c2.57-7.64,5.23-15.15,12.56-20,3.23-2.12,4.91-5.81,6.1-10.42l-8.49,2.22c6.14-10.92,14.38-18.19,22.91-25.34s.9-18.58,6.35-27.52c-4.43,13.17-20.94,8.27-27.09,20.33-2.6,5.08-15.85,9.1-22.06,7-12-4-14.29,5.21-20.06,9.93-3,2.48-4.77,9-9.87,5.07s-.33-8.15,2.38-10.83c18.54-18.31,26.58-43.35,41.12-64.29,6.61-9.52,11-20.92,19.26-29.77a23.25,23.25,0,0,1,7.31-5.55l-15.62,21.21a70,70,0,0,0,18.94-18.1C1844.75,471.33,1841,471.59,1838.07,472.78Zm12.11,212.92c10.81-17.65,27.83-29.68,41-45.19,1.62-1.91,7.61-1.26,5.07-5.51-3.21-5.37-4.87,2.62-8.2,2.23-1.2-.14-2.83,2.29-4.06,3.72a353.88,353.88,0,0,1-40.75,39.81c-3.55,3-8.11,5.74-7.37,13l13.94-7.76c-8.22,7.67-16,15.71-26.82,20.21-5.23,2.18-9.47,6.76-14.12,10.31-3.3,2.53-6.32,5.89-3.12,9.78s6.25.4,8.66-2a23.4,23.4,0,0,1,10-5.74c2,4.45,2,4.45,14.06,4.75-22.42,5.14-37.51,22.44-57.77,33.07,4.62,0,10.34-2,5.67,5.13-2.1,3.22-4,6.54-6.24,9.7-5.42,7.82.38,12.92,5.09,17.13,6.92,6.19,6-4,9.41-5.47,1-.44,2-1,3.16-1.65,3.61,6.55-2.62,12.39-1,21l7.7-14.9,1.14.34-3.51,16.45c3-6.36,8.33-10.79,13.46-19.2-1,4.56-1.27,6-1.64,7.48-3.07,12-3.07,12,3.91,17,.25.18.1.84.34,1.09,3.15,3.33,9.89,1.9,11.53-2.29,3.47-8.88,5.57-18.42,12-26.23,2.88,8.29,9.46,1.65,13.44,4.19,4.55-9.53,4.09,1.33,6.45,1.6,2.08-3,3.66-7.88,6.44-8.69,5.18-1.53,4.77-1.37,8.22-4.31,6.78-5.79,5.94-16.6,13.85-21,16.68-9.16,27.55-24.29,40.17-37.65,1.47-1.55,3.91-3.72,1.82-5.88-1.4-1.44-4.56-2.6-6.31-2-14.69,4.87-30.73-3.26-44.81,6.4-.54-.84-1.07-1.69-1.6-2.53q11-13.26,22-26.51l-2.28-1.94c-7.87,11.32-24.37,14.29-27.1,30.73-.28,1.72-2.77,2.86-4.86,2.07-2.34-.87-2.7-4.07-1.5-4.75,9.79-5.53,7.13-18.37,16.13-25.22,10.09-7.68,17.7-18.63,27.2-29-9.6-1.46-12.5,5.11-16.8,9.12-9.64,9-19.22,18-28.48,27.41-11.31,11.44-22.92,22.2-39.65,24.91,4.15-6.1,9.8-10.71,15.2-15.6,5.11-4.63,10-9.49,14.8-14.46,1.11-1.16,2.82-3.27.74-4.91S1851.26,683.88,1850.18,685.7Zm1.1-37.68c21.43-8,42.82-38,47.43-66.51l-13.8,19.66c-1.68-4.45,2.85-6.73-.42-11.34-5.27,8.82-15.41,18.36-13.71,24.76,2.35,8.86-1.83,10.59-5.63,14.76C1860,635,1854.9,640.58,1851.28,648Zm55.65,107.9c-9.09,2.18-12.39,9.65-18.57,12.39-8,3.54-7.57,9.76-7.5,16.46,0,2.69.6,4.93,3.6,4.73,4.43-.31,3.58-3.43,2.15-5.87-1.59-2.71-2.25-5.32.4-7.24,3.26-2.36,4.71.18,6,2.93s3.54,3.2,5.58,1.15c11.79-11.81,23.89-23.37,33.32-37.3-13.22,2.5-17.51,16-29.41,22Zm-125-96.31c-3.09,22.67-12.68,44.46-10.11,67.92C1773.85,704.67,1783,682.91,1781.89,659.61Zm112.54,45.16c11.75-5.13,21-13.85,29-23.26,3.94-4.62-2.56-8.79-6.51-11.5-.89-.61-4,1.69-5.88,3-1.24.91-2,2.91.32,3.33,10,1.84,2.72,5.3.71,7.9C1906.6,691.36,1897.8,695.49,1894.43,704.77Zm-68.58-51.88c11.7-8.61,19.51-21.12,31.6-29.1,1.88-1.24,2.81-3.19.39-4.44-1.44-.75-3.93-4.09-5.34.11-1.11,3.28-4.32,4.35-6.15,6.6C1839.25,634.76,1829.63,641.52,1825.85,652.89Zm65-37.1,4.24,2.12q10.5-22.1,21-44.2l-2.36-1.15Zm24.66-3.12a144.66,144.66,0,0,0,20.41-40.35C1929.45,585.94,1918.71,597.4,1915.5,612.67Zm-7.57,91.25,2.57,2.86c5.46-6.59,16.91-7.2,17.5-19.95-1.91.44-3.28.34-3.93,1C1918.61,693.1,1913.29,698.53,1907.93,703.92Zm-200.31,19.7c-10.18,9.67-13.62,17.83-12.38,27Z" transform="translate(-1387.05 -373.09)"/><path class="cls-1" d="M1988.82,1613c-1.42,2.92-2.51,5.18-3.66,7.56,3.62.85,5.94-.85,7.78-2.67,15.53-15.43,34.94-24.48,54.39-33.58,14.92-7,29.43-7.95,44.91-1.21,13.43,5.85,28.26,8,41.36,15.25a80.33,80.33,0,0,1,10.43,7.11c2.94,2.32,2.6,5.5-1.88,6.69-29.26,7.78-54.58,24.07-81.28,37.42-28.92,14.47-58.29,28-87.36,42.21-38.86,19-77.56,38.21-116.43,57.13-18.22,8.87-36.71,17.17-55,26-4.31,2.08-10.64,3-10.2,9.69.41,6.3,6.61,5.66,10.64,6.94,37.5,11.87,74.42,25.53,111.56,38.37,51.16,17.7,101.72,37.28,153.05,54.5,21.73,7.3,42.85,16.65,65.41,21.58,3.58.78,10.85,1.31,7.18,8.77-3.35,6.8-5.5,14.82-16.7,12-27.6-7-55.41-13-83.09-19.68-79.57-19.06-159.12-38.17-239.06-55.67-29.27-6.4-57.91-15.57-87.62-20.27-9.84-1.56-19.42-.74-29.11.52-41.89,5.45-80.48,20.17-116.81,41.33-8.23,4.8-9.33,8.83.22,13.22,8.88,4.08,11.67,11.08,11.37,20.88-.58,18.81-7.72,33.21-22.71,45-22.4,17.63-46.71,31.27-74.07,39-16.89,4.75-33.89,8.2-50.14-3.89-7.79-5.8-14.93-10.56-15.42-21.6-.21-4.75-3.72-9.32-5.5-14-5.56-14.82-2.95-27.41,7.6-39.89,19-22.48,45.07-32.09,70.69-43.68,37.19-16.83,75.92-30.83,109.89-54.18,26.34-18.12,27-26.16,3.89-47.74-25.62-23.94-55.23-41.94-87.3-55.67-26.25-11.25-51.32-24.32-73.61-42.28-18.09-14.58-28.66-33.49-30.77-56.76-.27-2.92.22-7,2.06-8.84,11-11.12,20.52-24.31,39.34-23.2,39.49,2.32,73.44,14.74,99.3,46.68,12.45,15.39,23.53,30.83,28.64,50.17,2.32,8.78.17,15.61-7.7,19.67-6.91,3.56-3.51,5.5.54,7.33,22.73,10.28,43.17,24.79,66,35,18.21,8.14,33.64,9.6,53.32.38,59.64-28,120.89-52.45,181.26-78.88,34.28-15,67.74-31.87,103.1-44.37C1980.65,1614.08,1983.7,1612.06,1988.82,1613Zm-285.3,199.31c6,5.42,9.32-.75,13-3.49,1.87-1.37,4.08-5.07,1.09-6.87-3.92-2.35-5.36,3.24-8.47,4.24.45-4.82,4.24-8.14,7.64-13.78l-11.3,6.51c1.58-5.26,8.74-7.54,6.8-15-12.68,10.87-21.62,24.76-33,38.87,10.71.06,12.4-8.52,17.84-12.13l-3.73,9.09Zm309-184.37c1.21-6.35,8.9-8.88,10.3-17.18-6.63,4.33-9.08,11-15.24,13.16-1-2.22,3-3.78.18-7-6.08,9.42-17.6,8.9-25.68,14.86-3.43-3.21-3.73-3.5-7.31-.3-6,5.35-11.55,11.11-17.41,16.8-1.21-5.29,6.32-5.84,5-11.84-6.29,4.44-11.34,8.52-15.12,14.61-3.43,5.52-6.46,12.39-14.63,12.94-.75-1.56-1.49-3.13-2.24-4.7-.11-3.52,4.6-5,3.63-10.11l-13.4,10.59c.62-3.87.32-7-4.39-3.35-4.25,3.25-8.08,7-12.1,10.58.29-3.34.66-7-4.47-4.09-2.92,1.67-5.22,5.34-8.2,5.85-15.83,2.76-29,9.61-38.94,22.46-1.8,2.34-3.36,5.29-6.87,5.74.07-5.53,8.37-6.82,7.2-13.3-8.79-.54-11,8.14-17,11.09-.06-2.9-1.51-3.1-3.75-2-4.75,2.32-9.09,6.25-13.67,7.75-12.58,4.1-26.42,4.87-34.66,17.58-1.1,1.7-3.71,2.43-5.61,3.61,2.45-1.76,3.58-3.86,1.29-7.69-9.63,6.79-14.77,18-24.64,24.06,2.6-6.07,9.52-9.49,11.45-17.8-7.91,1.84-10.16,8.51-15.13,11.55-.43-3.31-1.74-5.3-4.93-2.38-3.89,3.55-7.49,7.42-11.21,11.15.77-4.5,1.09-9-5.24-4.4-4,2.92-7.26,6.88-10.85,10.37,0-1.81,1.9-4.13-.16-5.32-3-1.75-5,.38-6.19,3.08-2.36,5.51-6.93,8.73-11.29,12.29-2.25-3.14,2.65-5-.14-8.32-6.2,2.68-11.63,8.3-13.14,13.52-3.4,11.82-12.45,17.08-21,23.45,2.67-12.83,15.8-18.79,21.34-30.62-6.75-.19-9.06,4.1-12.22,7.42-1.54,1.61-3.12,6.32-5.85,3.34-5.13-5.61-7.18-.76-9.81,2-4,4.21-7.65,8.76-11.55,13.07-2.19,2.42-4.69,7.18-3.2,8.07,11.57,6.9-1.07,9.15-2.38,13.29-1.06,3.35-5.51,5.65-3.86,8.79l19.65-17.37c-2.56,8-10.2,13-13.67,21.24,7.41-.67,14.42,3,20-3,.46,3.29-1.14,10,5.54,4.3,4.66-4,8.36-9,12.4-13.67,1.27-1.45,2.47-3.36.91-5.12-2.28-2.56-4.16-.43-5.72,1.15-4.54,4.56-7.52,10.65-13.54,13.76,14.9-24.59,34.29-45.48,54.35-65.83l-22.42,31.19c3.94,2,6.47,0,9.13-1.42-1,3.08-4,5.59-2.79,10.16,9.68-6.28,13.39-17.9,23.16-23.26-2,4.35-6.63,7.29-7.11,14.16,10.52-4.41,12.85-16,21.57-20.45,0,5-5.76,7.52-6.46,13,7.27-.84,9.61-6.18,13-10.12,9.77-11.35,17.4-24.52,29.11-34.22-1.71,3.87-5.93,9.63-4.69,11.27,5.91,7.8-1.68,9.18-4.82,12.71.86-1.67,2.22-3.36,1-5.3-1.1-1.76-2.86-1.17-3.86-.07-4.78,5.29-11.18,9.61-12.29,18.51,7.36-2.57,9.78-9,14.69-12.5-.63,3.19-.2,8.34,3.62,4.93,8.89-7.95,23.65-6.23,29.5-18.86,1.33-2.88,5-4.68,7.6-7-.69,3.23-4.66,5.16-3.56,10.15,8.12-1.68,11.88-8.2,16.27-13.58,8.22-10.07,15.84-20.65,26.08-28.88-6.3,12.78-18.29,21.48-26.23,35.72,11.77-3.91,13.72-15.84,22.43-20.82,1.41,6.06-5.75,7.67-4.89,14.25,21.28-11.3,29.43-34,47.82-46.18l-29.29,35.71c10.57-2.16,12.14-10.55,18.52-12.5-.81,5.18.13,8.54,5.28,3.37,6.43-6.46,12.21-13.57,18.28-20.41-2.82,4.49-6,8.83-6.73,15.35,8.31-4,11.36-11.79,17.66-16,11.51-3,14.43-15.62,23.77-21-.38,10.2-12,14.41-13.29,26.43l30.07-35,1.93,1.68-18.86,24,3.19,2.83,46.75-52.5c-.84,8.06-7.41,12.38-11.9,18-6,7.55-12.2,14.94-19.4,23.72,7.83-.26,8.35-8.6,11.5-7.7,12.21,3.47,13.54-7.77,18.82-13,9.25-9.19,15.48-21.2,26.47-28.85l-6.83,12.69,1.12,1,10.63-9.68c-3.41,11.07-14.38,17.35-18.12,28.25,14.25-15.68,29.21-30.71,41.78-50.41C2026,1612.35,2022.06,1623,2012.55,1628Zm22.71,4.8c4.36-15.35,20-23.39,24.11-39l-42.47,50.94c8.22-2,10.6-10.85,18.7-12.33-1.11,2.46-4.79,4.2-2.34,7.81,7.85-4.81,19.7-19.36,23.72-29l2.19,2.19ZM1493.63,1878c-1-1.57,4.67-6.62-1.47-4.82-8.47,2.48-16.27,7.22-24.36,11,9.85.66,17.18-5.46,26.13-6.52,2.85,1.61-5.33,8.06.9,5.64,14.16-5.5,30.36,6.61,43.91-8.21,8.16-8.92,21.61-13.24,33.37-18.55a546.47,546.47,0,0,1,80.24-29.36c-12.2-6.79-21.45-.2-30.92,3.36s-18.56,8-28,11.63c-9.24,3.56-18.68,6.58-28,9.83,2.57-3.39,6.73-4.44,6.9-9.1,3.45,2.28,6.63.73,9.93-.53,12.27-4.7,24.63-9.17,36.86-14,9.74-3.82,11.39-7.39,9.51-19.46-16.91,14.67-35.13,26.81-56.28,34C1547.27,1857.23,1518.59,1863.46,1493.63,1878Zm342.3-130.47.1.15c.77-3.63,2.85-5.86,6.38-7.34,14.31-6,28.58-12.08,42.73-18.43,12.51-5.62,24.85-11.64,37.26-17.48-.43-.91-.86-1.83-1.3-2.74l-192.67,83c10.33,5.31,17.34-2.82,26.23-2.26-4.62,3-9.6,5-14.44,7.31-2.69,1.29-6.83,2.69-5.24,6.45,2.16,5.11,5.55,1.44,8.64.14,27.69-11.67,53-28.07,80.62-40,6.5-2.82,14.5-4.71,20.1-11.46C1840.06,1743.55,1837.51,1744.17,1835.93,1747.48Zm-409.2-122.6c-4.48-1.33-6.39.49-4.37,4.59,5,10.09,10.17,20.11,20.76,25.82,11,5.91,22.13,11.43,31.56,19.84,2.86,2.56,6.32,2.73,10-1.19-12.69-7.8-25.14-15.49-36-25.31-2.38-2.16-9.19-3.37-4.56-8.2,3.26-3.42,5.92,1.72,8.36,3.82,24.19,20.78,51.36,36.1,82.23,44.45,6.83,1.85,11.43-4.59,17-6.87,4.13-1.69,1.45-9.2-.68-13.91-5.76-12.73-15.24-22.75-25.68-31.38-24.11-20-51.83-27.29-82.85-20.68-4.23.9-6.37,2.66-5.22,7.14.77,3,2.43,6.42-1.76,8s-4.7-3.21-7.13-4.75l4.27-.51c-1.55-7.28,2.62-13.09,5.2-19.41C1432.93,1611.9,1421,1613.18,1426.73,1624.88Zm95.76,266.39c-29.14,3.35-52,17.83-72.73,36.72-6.66,6.07-10.9,14.2-7.25,22,4.51,9.57,15.14,9.43,24.69,9a11.5,11.5,0,0,0,1.13-.26c28.9-3.63,50.5-21.3,72.2-38.32,9-7.05,6.58-21.88-3.56-26.2C1532.46,1892.27,1527.18,1892.16,1522.49,1891.27Zm-74-294.75a38.45,38.45,0,0,0,3.92-1.77c1.23-.74,4-.51,2.48-4-11.9,1.72-23.13,4-29.18,16.73,7.41-8.62,16.94-5.73,26-6,21.31-.52,42,2.35,60.24,13.92,8.74,5.55,15.89,13.64,23.7,20.65,2.79,2.51,5.52,4.76,10.34,3.42a52.54,52.54,0,0,0-9-11.71c-12.48-12-26.9-21.3-42.15-29.14-4.7-2.42-8.42-10.11-13.74-7.18C1470.93,1597.06,1459.89,1594.86,1448.46,1596.52Zm120.2,302.61c-3.5,2.57.35,10-5.54,9.85-5.29-.16-2.5-6.45-4.75-9.49-5.53-7.44-10.56-15.3-22.11-16.25,1.4,6.7,5.65,8.53,8.62,11.47,12.11,12,10.54,29.09-2.92,39.41-6.42,4.92-14.32,8.44-19.84,17.21C1555.3,1934,1573.29,1913.51,1568.66,1899.13Zm-43.24-205.72c11.75,7.28,22.74,15.52,34.59,22,11.6,6.31,22.24,16.26,37.12,15-3.69-2.7-7.84-4.34-11.89-6.21-8.89-4.11-20.31-8.44-22.9-16.83-3.5-11.37-9.59-13.2-18.58-12C1537.24,1696.28,1531.73,1693,1525.42,1693.41Zm-44.51,193.88c-6-1.6-10,5.2-14.72,3.11-7.9-3.47-10.22,1.8-13.49,6.73-6.39,9.65-9.87,21-19.07,29.13a14.17,14.17,0,0,0-4.35,14.89C1444.06,1920.38,1460.32,1902.08,1480.91,1887.29Zm116.93-152.5-1.67,2.39c6.61,6.44,13.3,12.8,19.82,19.34,4.89,4.91,10.2,6.44,16.88,3.74,3.13-1.27,8.41-.94,7.51-5.32s-5.09-.31-7.72-.7c-2.14-.32-4.12-1.83-6.09-3Q1612.19,1743.07,1597.84,1734.79ZM1556,1653l-2.52,2.43c6.42,9.16,4.49,19.14,3.77,30.52,1.76-9.9,14.2,2.71,14.4-8.29.14-7.27-6-12.16-10.48-17.43C1559.29,1658,1557.75,1655.39,1556,1653Zm-119.91,305.8a58.05,58.05,0,0,1-1.75-6.89c-.85-6.5-6.24-7.75-10.24-6.11-5.94,2.44-1.39,6.27.95,8.87,3.89,4.31-.58,7.89-.65,11.83,0,2.32-1,5,1.44,6.24,3.14,1.58,5.06-.79,6.36-3.3C1434,1966,1436.2,1962.7,1436.13,1958.77ZM1870.62,1857c14.9-2.64,28.22-8.36,39.28-18.82C1896.79,1844.51,1880.72,1844.32,1870.62,1857Zm-413.4,128.47a106.87,106.87,0,0,0,50.29-17.85C1490.61,1973.24,1474.07,1979.88,1457.22,1985.46ZM1469,1971.7c-7.08.51-13.89,2-20.92,1.42-3.85-.31-5,3-6.27,5.92-1.08,2.42,0,3.63,1.94,4.51s4.52,3.45,6.12.92C1454.43,1977.27,1463.48,1977.69,1469,1971.7Zm555.32-92.9c-2.73-1.94-4.86-.76-7-.42-5.57.85-10.29,10.17-17.09,1.61-.67-.84-5.58,1.46-5,4.74.46,2.5.87,7.11,5.51,5.46C2008.84,1887.3,2017.79,1885.87,2024.33,1878.8Zm-487-172.54c-12.15-7.39-24-15.36-38.3-18C1509.62,1698.78,1525,1699.39,1537.3,1706.26ZM1959,1878.84c24.74-5.26,24.74-5.26,25.66-12.91C1975.52,1869.24,1966.54,1872.47,1959,1878.84ZM2074.65,1621c9.75-5.14,14.67-14.37,19.74-23.48A61.12,61.12,0,0,0,2074.65,1621Zm-111.74,238.4-1.11-2.2-28.5,13,1.46,3Z" transform="translate(-1387.05 -373.09)"/><path class="cls-1" d="M1709.88,1246.77c9.36-12.86,23-21.3,36.5-27.59,6-2.82,16.22-1.62,24.19-5.1,8.89-3.89,14.64-12.89,24.64-14.81l-11.07,12.07c17.86-.63,27.46-13.31,41.76-21.41-14.22-3.27-21.44,6.49-31.05,9.68-1.14-1.5,3.63-7.54-1.9-4.62-7.6,4-17.49,2-23.41,9.44-4.56,5.77-5.32-4.1-8-2.13-12.77,9.24-30.12,3.66-42.65,13.49-4.65,3.64-7.46,4.61-15.18,1.71-60.06-22.53-118.88-50.13-185.11-51-17-.22-34.07-3.89-51.09-6.06-5.45-.69-11-1.67-16.29-.12-7.88,2.31-11.25-1.47-13.14-7.93,23,2.64,45.55,6.35,68.29,7.64,66.26,3.77,129,21.68,190.47,45.26a27.61,27.61,0,0,0,20.12.41c32.3-10.91,65.83-15.74,99.51-20.58,22.21-3.18,44.62-4.9,66.84-7.54,7.94-.95,17.55-4.75,26.32-.6,1,.45,2.74.55,3.4,0,9.23-8.08,21.68-4.56,32.29-8.82a79.26,79.26,0,0,1,22.53-5.06c20.18-1.4,37.79-9.73,56.27-16.56,25.14-9.31,50.41-19,77.53-21.89-20.21,8.86-43.72,9.14-61.46,24.13-2.82-6.73-6.37-1.49-9.22-.29-25.8,10.89-50.78,24.09-79,27.94-8.33,1.14-10.38,8.26-16.66,13.23,12.75,2.6,15.4-12.82,26-10.41,0,4.34-6.09,4-5.59,8.47,5.14,1.71,9.64-2.9,15.64-1.44-23.33,13.07-51.45,9.06-73.26,24.38,7-1.66,16.62,1.65,20.49-2.5,5.15-5.52,10.39-5.55,16.1-6.34,10.37-1.43,21-.86,31.14-4,18.11-5.55,35.22-14,54.1-17.45,22.94-4.22,46.32-6.36,68.59-13.85,3.46-1.16,9.74.64,7.92-6.8,1.81,3.17,3.83,5.55,8.15,5.42,5.85-.18,14.71-4.93,13.71,7.75-.05.68,3.93,1.92,6.13,2.5,17.26,4.59,31.69,14.87,47.1,23.2,5.37,2.9,4.94,5.14,0,7.81a58,58,0,0,1-29.4,6.76c-35.91-1-69.18,8.63-102.27,21.54-29.61,11.55-61.14,16.41-92.86,17.64-25.33,1-49.32,7.33-73,15.07-46.63,15.21-93.5,29.52-141.64,39.12-10.25,2-21.68,2.66-31.35-.92-29.79-11.05-59.91-19.68-91.65-23.16-25.75-2.83-50.18-11.62-74.14-21.21s-48.57-15.4-74.33-9.53c-25.19,5.74-48.5-1.17-73.81-9.08,11.16-5.14,20.94-9.56,30.63-14.16,2.76-1.31,7.25-2.89,7.54-4.85,1.62-10.86,9.63-8.77,16.53-9.08,54.47-2.45,106.19,9.27,156,30.56,18.44,7.89,37.91,12.08,57.22,16.88,12.5,3.11,25,6,37.47,9.44,7.22,2,14.33,3.19,21.75,1.46,3.4,5.46,7.26,4.57,11.7,1.15,3.31-2.55,6.41-6.44,11.07-5.73,13.19,2,25.1-4.62,32.08-12.46,8.54-9.59,18.45-7.1,29.6-12.17-6.63,6.5-15.62,2-18.83,9.82,13.7,1.92,23.1-7.19,34.17-12.39l-6.3,9.29c9.5-7,20.62-3.37,25.45-11.6,4.36-7.43,10.47-9.78,17.82-11.25,5.2-1,10.26-2.36,15.22-5.94-5.44-3.15-9.14-.22-13,.95-20.8,6.29-41.38,13.46-62.44,18.63-20,4.91-39.44,12.11-59.94,15-1.64.24-6.08,2.32-3.69,3.37,7,3.06,1.24,4.52-.32,5.64-4.1,2.94-8.57,5.36-12.9,8,2-6.71-1.81-11.92-6.52-14.42-5.68-3-12.64-4-19.18-4.91-33.92-4.89-65.15-18.19-97.12-29.57-45.18-16.08-92.14-23.22-140.2-22.23a42.1,42.1,0,0,0-5.84.35c-4.22.67-4.12-2.45-4.55-5-.83-5,2.83-3.65,5.23-3.39,61.17,6.73,122.79,10.75,179.6,38.58,24.11,11.81,51,14,77.46,16.26a8.63,8.63,0,0,0,7.43-2.45c-.09,7.87,5.1,4.16,8,3.18,14.57-4.93,24.73-16.19,36.4-25.47-8.08-1-14.5,1.88-20.47,6.57C1726.46,1236.72,1718.81,1242.74,1709.88,1246.77Zm197.22-61.24c.15,3.15-5.2,3.58-3.67,7.83,9.23.6,13.72-6.63,20.69-11.41-7.64-2.91-11.59,4-17.37,3.92-11.38-9.93-14.81,3.09-24.32,6.5C1894.82,1196.66,1899.11,1185.9,1907.1,1185.53Zm-46.67,20.69-3.77,7.56c10.11,1.25,14.86-5.85,21.76-10.1-8.15-5-12,4.23-18.36,2.94-1.08-4.92-4.89-4.84-7.94-3.21-6.42,3.44-13,6.85-19,13.61C1845.27,1218,1851.43,1208.55,1860.43,1206.22Zm-17.2-15.49c2.12-8.32-4-5.17-6.31-3.73-8.13,4.93-16.53,9.64-24.64,17.76,14,0,20.42-12.18,31.34-14.46-.25,4.69-6.38,4.93-7.44,9.73,13.14,0,22.76-6.13,32.06-14.8C1857.6,1179.86,1851.25,1188.85,1843.23,1190.73Zm60.28,52.76c-1.93,2.2-5,3.7-4.66,8,11.18-1.06,18.47-7.77,26.35-15.86-10-1.78-14.77,6.28-22,8,1-1.88,3.26-4.13,2.82-5.56-.82-2.67-3.84-1.74-6-1.25-2.61.58-5.43,2.51-7.7,1.95-18.91-4.65-27,10.9-38.67,19.68,13.64,1.58,20.05-12.3,32.12-15.35-.62,6.7-8.61,6-9.36,12.15C1888.06,1256.72,1893.65,1245,1903.51,1243.49Zm-144.15,35.61c.11,6-8.78,5.53-8.89,12.49,22.54-5.78,37.47-21.94,54.76-34.54a54.56,54.56,0,0,0-14.55,3.89c-11.38,4.78-19.79,14.7-31.73,18.58l8.06-9.3c-19.38,3.3-32.06,16.6-47,25.25-1.44-4.46,9.32-8.45,1.46-9.81-7.45-1.29-13.38-5.12-20.28-7-48.18-12.92-97.73-20.91-144-40.75-26.71-11.46-55.32-16.44-84.09-19.5-12.29-1.31-25.14-2.76-36.81,3.21-5.27,2.7-13.77,5.87-11.58,12.53,2.11,6.43,10.38,2.56,15.61,1.62,46.79-8.43,90.76,1.46,133.06,20.68,18.92,8.59,37.5,17.24,58.57,19.31,23.51,2.3,45.87,9.1,67.33,19,5.64,2.6,11.71,4.24,17.57,6.38,3.37,1.23,5.74,0,9.17-1.25C1738.66,1295.2,1746.85,1283.72,1759.36,1279.1Zm327.31-102.82c-24.77,2.1-48,9.32-70.88,17.69-39.33,14.36-79.24,25.72-121.83,24.61-13.64-.35-22.48,10.7-33.06,17.66,18.27-3.92,38.71,2.59,53.71-14.07-1.36,5.65-6.88,6-8.37,11.25,12.08,1.46,18.24-10.53,28.79-12.51-.25,4.48-6.13,4.9-5.84,9.55,10.52.41,14.53-11.89,24.53-11.61-.37,4.54-6.4,3.9-5.86,8.92,9.06-1,14.11-11,24-12.19-1.44,5.81-7.57,4.58-8.18,9.47,6.81-.15,11.8-3.36,16.56-7.67,3.07-2.79,9.21-7.55,10.66-5.32,6.2,9.55,11.4,1,15.79-.6,6-2.1,11.48-6.17,17-9.76s9.92-10.67,19.49-8.35l-10.73,8.16c10.15,1,15.15-10.37,21.45-9.22C2069.79,1195.18,2077,1184.08,2086.67,1176.28Zm-62.88,51.18c22.45,1,30-22.94,49.23-26.76-2.09,6.89-11.05,6.73-11.43,14.86l36.43-24.81a149.29,149.29,0,0,0-44.69,11.3c-27.72,11.46-55.16,23.78-85.12,28.32-5.91.9-5.94,4.82-8,11.3,25.36-13,53.63-9.36,76.55-25C2035.8,1225,2027.51,1222.55,2023.79,1227.46Zm-207.38,40.2c19.67.1,32.9-11.76,47.18-24.35C1841.69,1241.6,1832.16,1260.21,1816.41,1267.66Zm-30.08-51.46c-20.85,2.13-32.49,13.93-44.55,25C1759.4,1239.85,1770.87,1227.75,1786.33,1216.2Zm16.45,6.68c17.28.17,26.72-8.77,38.08-17.71C1825,1205,1814.44,1211.76,1802.78,1222.88Zm-9,50.38c15-3.26,25.91-14.06,37.75-23.36C1815.59,1251.81,1806.34,1264.93,1793.75,1273.26Zm13.56-60.81c-13,.23-20.32,9.52-30.69,17.63C1791.53,1229.67,1797.38,1217.51,1807.31,1212.45Zm54-18.17c13.7,1.71,19.24-1.21,25.48-11.83C1876,1181,1871.68,1190.83,1861.27,1194.28Z" transform="translate(-1387.05 -373.09)"/><path class="cls-1" d="M2069.94,1115.8c-41.62,8-91.34,7.39-141,1.33-21.79-2.66-42.39-11.1-61.62-21.45-15.38-8.27-30.63-10.19-47.27-7a299.44,299.44,0,0,1-81.53,4.46c-45-3.79-87.38,7.45-129.83,19.95s-86,19-129.36,26.41c-4,.68-8.38,1.55-14.82-2.2,38.23-1.68,72.24-13.3,107.36-19.15,23.63-3.94,46-11.84,68.6-19.25a221.84,221.84,0,0,1,98-9.85c30.58,3.75,61.55,1.26,92-4.41,13.36-2.49,26.48-.91,37.56,5.27,43.46,24.27,90.62,26.52,138.53,25.95C2030.25,1115.56,2054,1115.8,2069.94,1115.8Z" transform="translate(-1387.05 -373.09)"/><path class="cls-1" d="M1709.93,418l0-.23c2.15-7.66,9-6.22,13.06-4.57,7.5,3-.73,9.32,1,14.13,4.11-.71,3-6.49,7.48-6.88,4.24,7.13-1.08,10.42-6.09,11.71-28,7.23-48.31,27.45-72.12,41.69-24.55,14.69-38.71,35.95-36.16,66.09.4,4.76.42,10.44-5.88,12.59l.26.25c-3.52-17.59,1.31-34.33,5.13-51.2,1.43-6.34,4.41-10.81,10.16-14.7,15.11-10.26,29-22.31,44.93-31.4,8.63-4.92,9.76-15.48,15.94-22.3-1.4,3.8-3.3,7.63.52,11.61,4.3-7.23,6.24-15.29,12.48-20.74l-.3-.19c1.26,5.21-6.75,9-2.44,15.13,4.16-.07,3.19-8.67,9.79-5.44,1.52.74,5.48-6.11,6.13-10.89C1714.36,419.2,1713.69,417.53,1709.93,418Z" transform="translate(-1387.05 -373.09)"/><path class="cls-1" d="M1730.94,1220c-8.94,6-15.67,9.73-21,15.48-3.93,4.22-9.55,2.58-14.37.79-76.7-28.63-156.46-44.91-236.76-59.13-6.85-1.21-13.16.07-19.58,1.75-2.49.65-5.61,2.81-6.67-1.39-1.29-5.1,3.26-3,5.26-3.43,18.88-3.65,37.28.73,55.67,3.87,50.84,8.7,100.6,22,150,36.66,17.13,5.09,33.65,12,51.2,16.16,9.67,2.28,16.39.76,23.06-5.88C1720.24,1222.3,1723.18,1219.42,1730.94,1220Z" transform="translate(-1387.05 -373.09)"/><path class="cls-1" d="M2096.82,1160.13c-31.7.77-62.57,6.6-93.79,16.71,6.21-10.76,21-22.08,33.52-26.41-2.28,4.51-7.07,5.87-10.74,8.63a46.24,46.24,0,0,0-9.24,8.9c13.7-2.69,23.21-12.47,33.86-20.21,2.83-2.07,5.4-4.06,8.81-5.32,8.91-3.28,2.23,3.75,4.05,5.82l22.75-12.9,1.09,1.19L2063,1155.45c17.14-4.69,28.74-18.41,44.59-25.86.88,8.34-2.4,14.61-8.79,18.16C2092,1151.56,2091.12,1155,2096.82,1160.13Z" transform="translate(-1387.05 -373.09)"/><path class="cls-1" d="M1520.91,693.91c-1-45.08,20.4-73.41,56.85-77.07.33,4.09-3,4.86-5.62,6.2a107.19,107.19,0,0,1-10.5,5c-20.53,7.91-30.44,23.4-32.6,44.74C1528.34,679.77,1525.65,686.22,1520.91,693.91Z" transform="translate(-1387.05 -373.09)"/><path class="cls-1" d="M1771.43,596.57l-1.24,2.13c-10.15,6.22-16.84,15.84-24,24.91-3.55,4.52-6.45,5.87-11.6,2.52-5.86-3.8,0-5.66.54-8.59,1.59-9,6.26-14.11,15.17-15.92,1.36-.28,3-2.67,3.24-4.29.66-3.89.71-8.8,5.6-8.74,5.54.07,1.44,6.72,4.8,9.35,2.15-1.28,4.36-2.61,6.62-3.87.17-.1.87.24.89.44A11.85,11.85,0,0,1,1771.43,596.57Z" transform="translate(-1387.05 -373.09)"/><path class="cls-1" d="M1675.67,505.26c-4.65,14.07-17.32,18-27.79,23.91-4.8,2.7-10.42,4.92-15.72,7.24-3.31,1.44-6.22.64-8.07-2.48-2.38-4,.53-5.44,3.63-6.77a114.64,114.64,0,0,0,26-15.57C1660.36,506.3,1669.78,513,1675.67,505.26Z" transform="translate(-1387.05 -373.09)"/><path class="cls-1" d="M1765.66,467.55c6.15-7.22,12.49-8.81,19.52-8.62,2.7.07,5.81.22,5.19,4.34-.42,2.84-1.44,5.38-5,5.24C1779.42,468.28,1773.46,467.94,1765.66,467.55Z" transform="translate(-1387.05 -373.09)"/><path class="cls-1" d="M1746.07,712.76a259.11,259.11,0,0,1,9.87-55.5C1756.07,676.34,1749.82,694.33,1746.07,712.76Z" transform="translate(-1387.05 -373.09)"/><path class="cls-1" d="M1611.29,552.57c-4.63,11.85-11.51,22-22,29.5,4.94-11.63,12.75-21.09,22.31-29.25Z" transform="translate(-1387.05 -373.09)"/><path class="cls-1" d="M2084.34,1232.25c12.75-7.42,26.51-8.63,40.7-7.27Z" transform="translate(-1387.05 -373.09)"/><path class="cls-1" d="M1710.58,1103.19l-36.62,4.66C1685.7,1102.22,1698.08,1101.22,1710.58,1103.19Z" transform="translate(-1387.05 -373.09)"/><path class="cls-1" d="M1908.94,1684.91c5.91-9.59,12.25-18.82,21.46-25.65.75,1.57,1.49,3.14,2.24,4.7l.07-.06C1923.37,1669.29,1920.45,1682,1908.94,1684.91Z" transform="translate(-1387.05 -373.09)"/><path class="cls-1" d="M1835.93,1747.48c-11.12,1.59-19.42,10.71-33.5,11.77,12.1-6.33,21.36-12.87,33.56-11.67C1836,1747.63,1835.93,1747.48,1835.93,1747.48Z" transform="translate(-1387.05 -373.09)"/></svg>