<svg id="Ebene_1" data-name="Ebene 1" xmlns="http://www.w3.org/2000/svg" viewBox="0 0 440.91 368.41"><defs><style>.cls-1{fill:#fff;}</style></defs><path class="cls-1" d="M1708.9,550.23c39.09,6.09,77.6,12.19,116.15,18.06,23.66,3.6,37.68,22.52,34,46.35-.81,5.23-1.53,10.47-2.5,15.67a38.1,38.1,0,0,1-43.6,31.1c-30.23-4.56-60.42-9.37-90.63-14.06-1.72-.27-3.46-.42-6.32-.76,1.53,2.19,2.55,3.63,3.55,5.09,8.5,12.46,10.2,25.65,4,39.55-2.47,5.55-5.27,10.94-8,16.35a35.83,35.83,0,0,1-17.89,17.14c-3,1.3-4,2.75-3.63,6.14,2.21,19.07-6.81,34.47-18.24,48-10.64,12.6-28.19,15.08-43.74,7.67-30.59-14.58-61-29.63-91.38-44.61-8.95-4.41-18.33-8.06-26.52-13.9-1.83-1.29-3.74-1-5.65-1-18.2,0-36.4,0-54.6,0-21.22-.06-34.91-13.86-34.91-35q0-95.91,0-191.83c0-16.23,10.57-29.31,26.13-32.52a44.17,44.17,0,0,1,8.77-.65c21-.05,42-.11,63,0a20.31,20.31,0,0,0,11-3.21c21.08-12.48,42.33-24.68,63.4-37.18a29.63,29.63,0,0,1,23.78-3.2,181.67,181.67,0,0,1,22.85,7.5c11.56,4.84,19,13.78,21.88,26,.93,3.92,2.39,4.47,6,3.9,48.59-7.68,97.21-15.2,145.8-22.85,22-3.47,41.28,9.91,45.16,32,1.72,9.78,4.52,19.54,2.53,29.69-3.15,16-15.38,28.32-31.52,30.89-37.74,6-75.52,11.79-113.28,17.69C1712.66,548.47,1710.8,548.25,1708.9,550.23Zm-267.52,46.82q0,47.07,0,94.15c0,9.76,3.74,13.41,13.58,13.43,11.55,0,23.09,0,34.64,0,3.12,0,6.65,1.69,9.24,0,3.29-2.12.12-5.73.47-8.7.65-5.51,1.62-10.84,4.14-15.83,1.94-3.85,4-7.66,5.7-11.61,4.27-9.76,11-17.06,20.85-21.29,1.73-.74,3.34-1.36,2.78-3.7-2.88-12.17,1.36-22.9,7.2-33.07,3.18-5.53-2.38-7-3.81-10.29-1.21-2.81-3.35-2.57-5.89-2q-18.64,4.2-37.34,8.13c-6.74,1.42-12.46-2.19-13.85-8.49-1.32-6,2.24-11.39,8.71-13.25q1.41-.41,2.85-.72c11.29-2.46,22.59-4.89,33.87-7.4,2.15-.48,4.14-.52,5-3.76,7.15-26.7,16.93-52.57,25.41-78.85a10.67,10.67,0,0,1,6.66-7A10.53,10.53,0,0,1,1573.1,489c3.94,3.57,4.41,8.11,2.81,13-7.7,23.24-15.47,46.46-23.09,69.72-3.27,10,.72,18,10.48,21.6q7.17,2.63,14.47,4.86c9.67,3,17.76-1,21.17-10.46,2.27-6.26,4.25-12.63,6.35-19q15.87-47.68,31.73-95.38c3.69-11.14-.44-19.32-11.44-23-4.45-1.5-8.93-2.93-13.37-4.5a12.93,12.93,0,0,0-11.72,1.35c-21.56,12.84-43.3,25.36-64.83,38.24a27.43,27.43,0,0,1-15,4c-21.77-.22-43.55-.11-65.32-.1-10.62,0-14,3.37-14,14.13Q1441.38,550.27,1441.38,597.05Zm375.41,42.29c8.59.4,15.51-4.45,17.33-12.15,1.26-5.32,1.88-10.79,2.69-16.21,1.66-11.2-3.82-18.65-15-20.42q-10.44-1.65-20.89-3.27-82.31-12.82-164.6-25.71c-3.66-.58-5.2.33-6.25,3.9-2.22,7.5-4.93,14.85-7.44,22.27-3.45,10.17-3.48,10.25,6.18,14.85,9.31,4.43,18,10.31,28.51,11.94q50.79,7.89,101.56,15.87C1778.46,633.45,1798,636.44,1816.79,639.34ZM1639.73,536.69c2.8-.23,4.54-.27,6.25-.54q45-7,90-14c29.2-4.57,58.41-9.1,87.58-13.83,9.48-1.54,14.81-9.29,13.5-18.79-.64-4.65-1.31-9.31-2.12-13.93-2.07-11.92-9.46-17.06-21.3-15.19-26.69,4.21-53.39,8.31-80.08,12.46q-35.7,5.55-71.37,11.15c-2.6.41-5.22.45-6.35,4C1650.69,504.05,1645.28,520,1639.73,536.69Zm32.33,201.69c-.34-8.65-3.86-13.54-10.27-16.66-17.78-8.66-35.5-17.43-53.26-26.12-18.79-9.18-37.52-18.5-56.44-27.39-10-4.68-17.46-1.43-22,8.54-1.14,2.48-2.57,4.83-3.81,7.26-6.14,12-7.77,23.44,9,30.4,10.83,4.5,21.13,10.23,31.68,15.39,24.27,11.88,48.57,23.69,72.79,35.65,6.57,3.24,13.31,3.95,18.66-1.14C1666,757,1669.15,746.92,1672.06,738.38Zm32.75-62.2c-.61-8.42-4-13.23-10.17-16.28-27-13.45-54.41-25.89-80.9-40.29-5.31-2.89-10.62-4-16.65-1.25a33.43,33.43,0,0,1-24,1.92c-11.73-3.5-11.9-3.37-16.84,8.18s-.86,17.77,8.72,21.89q17.17,7.39,34,15.55c25,12.14,50,24.17,74.76,36.83,6.08,3.11,11.6,4.8,16.68.17C1698.62,695.43,1701.68,685,1704.81,676.18Z" transform="translate(-1418.91 -422.27)"/></svg>