<svg id="Ebene_1" data-name="Ebene 1" xmlns="http://www.w3.org/2000/svg" viewBox="0 0 338.37 336.45"><defs><style>.cls-1{fill:#fff;}</style></defs><path class="cls-1" d="M1418.84,1710.36q0-46.77,0-93.54c0-22,13.48-35.48,35.6-35.47,20.79,0,41.57-.07,62.36.07a19.48,19.48,0,0,0,10.48-2.93c21.07-12.48,42.32-24.67,63.36-37.22,8.16-4.86,16.63-5.66,25.45-3.2,7.16,2,14.22,4.41,21.17,7.07a34.39,34.39,0,0,1,18.79,16.95c1.81,3.6,4.06,4.62,7.65,4.82,16.84.91,33.65,2.18,50.49,2.92,26.74,1.2,42.2,18.79,40.31,45.61-.86,12.2-.89,24.43-9.42,34.42-1.55,1.8-.2,2.89.83,4,10.38,10.82,13.11,23.64,10.2,38.05-1.08,5.37-1.45,10.91-2.82,16.2a35.22,35.22,0,0,1-15,21.08c-2.8,1.84-3.61,3.23-2,6.51a35.72,35.72,0,0,1,2.82,22.38c-.88,5-1.54,10.07-2.35,15.1-2.15,13.32-9.22,23.16-21.29,29.15-2.87,1.42-3.37,2.66-2.73,5.79,3.15,15.32.2,30.2-5.94,44.08-6.55,14.81-23,23.13-38.85,20.52-41.17-6.78-82.28-13.93-123.41-21a32.34,32.34,0,0,1-16-7c-3.27-2.83-6.76-3.36-10.79-3.34-21.38.1-42.75.07-64.13.05-20.92,0-34.76-13.8-34.77-34.57Q1418.84,1758.6,1418.84,1710.36Zm22.43,1q0,47.05,0,94.12c0,8.75,3,13.11,10.65,13.27,19.2.39,38.42.15,57.63.22,2.61,0,3.43-1.1,3.26-3.56-.46-6.74,1.57-13.2,2.37-19.8,1.79-14.83,8.48-26.3,22.11-33.19,1.47-.75,2.82-1.42,2.26-3.48-3.18-11.66.42-22.94,2-34.33.77-5.57-6.71-13-12.06-11.83q-17.81,3.86-35.6,7.71a13.83,13.83,0,0,1-5.8.47,11.27,11.27,0,0,1-9.24-10.69c-.17-5.77,3.25-10.1,9.65-11.56,12-2.76,24.12-5.26,36.16-8,1.93-.43,4.4-.19,4.74-3.34.79-7.08,3.73-13.57,5.92-20.26q9.51-29,19.22-58c2.24-6.68,8.1-10,14.09-8.23,6.39,1.86,9.37,7.88,7.4,15-.42,1.51-1,3-1.49,4.46-7.27,21.93-14.6,43.85-21.79,65.81-3.17,9.69.61,17.66,10.06,21.36,4.55,1.77,9.26,3.16,13.92,4.65,10.81,3.46,18.75,0,22.37-10.77q19.46-57.63,38.37-115.41c3.1-9.44-1.39-17.58-10.85-21-4.43-1.58-8.94-2.91-13.35-4.53a14.53,14.53,0,0,0-13.39,1.35c-21.7,12.95-43.58,25.6-65.3,38.51a22.67,22.67,0,0,1-12.18,3.43c-22.55-.16-45.1-.09-67.65-.08-9.86,0-13.43,3.58-13.43,13.51Q1441.25,1664.34,1441.27,1711.39Zm114.7,69.83c-9.38,0-15.48,4.47-17.34,12.22-1.33,5.51-2.19,11.13-3.12,16.73-1.6,9.7,3.73,17.75,13.46,19.44q60.49,10.47,121,20.57c9,1.5,16.28-3.55,18.35-12.48,1.11-4.76,1.69-9.64,2.53-14.46,2.1-12.17-3.3-19.65-15.35-21.68-26.84-4.51-53.65-9.17-80.48-13.74C1581.56,1785.51,1568,1783.25,1556,1781.22Zm4.84-33c-.17,7.93,2.52,11.2,10.32,12.71,41.12,7.95,82.84,12.55,123.6,22.51,9.14,2.23,17.35-3.35,19.45-12.58,1.12-5,1.75-10,2.45-15.08,1.68-12-3.55-19.1-15.62-21-27.49-4.21-55-8.25-82.48-12.51-3.21-.5-5.31,0-7.72,2.41-9.9,9.87-22,12.86-35.66,10.68-4-.64-8.7-5.36-11.66-1.94-2.51,2.9-1.84,8.55-2.56,13C1560.84,1747,1560.85,1747.61,1560.81,1748.2Zm153.35-34.58c9.29.37,15.91-4.47,17.7-12.72,1.2-5.53,1.8-11.2,2.48-16.84,1.23-10.23-4.21-17.51-14.52-19.07-25.55-3.86-51.14-7.51-76.68-11.39-3.23-.49-4.56.52-5.51,3.47q-6.3,19.54-12.94,39c-1,3-.88,4.37,2.8,4.85,11.26,1.44,22.46,3.31,33.69,5C1679.19,1708.52,1697.2,1711.14,1714.16,1713.62ZM1689.54,1591v-.06c-8.41-.48-16.82-.85-25.22-1.49-3-.23-4.58.62-5.53,3.66-3.5,11.21-7.1,22.38-11,33.44-1.35,3.8-.79,5.12,3.31,5.69,20.36,2.83,40.68,5.93,61,8.91,10,1.46,17.91-4.41,19.12-14.42.59-4.85.58-9.78.83-14.67.61-12.15-5.31-18.93-17.29-19.67C1706.36,1591.85,1698,1591.44,1689.54,1591Z" transform="translate(-1418.84 -1536.72)"/></svg>